<svg width="595" height="209" viewBox="0 0 595 209" fill="none" xmlns="http://www.w3.org/2000/svg">
<path d="M376.776 67.344L397.416 118.224L389.352 116.592L408.072 67.344H424.584L392.328 141.264L360.072 67.344H376.776ZM458.216 67.344C464.04 67.344 468.968 68.336 473 70.32C477.032 72.24 480.104 74.992 482.216 78.576C484.328 82.096 485.384 86.288 485.384 91.152C485.384 94.032 484.936 96.944 484.04 99.888C483.208 102.768 481.832 105.392 479.912 107.76C478.056 110.128 475.528 112.048 472.328 113.52C469.192 114.928 465.32 115.632 460.712 115.632H450.728V138H436.808V67.344H458.216ZM460.616 102.096C462.728 102.096 464.488 101.744 465.896 101.04C467.304 100.272 468.392 99.344 469.16 98.256C469.992 97.104 470.568 95.92 470.888 94.704C471.272 93.488 471.464 92.432 471.464 91.536C471.464 90.832 471.336 89.904 471.08 88.752C470.888 87.536 470.44 86.32 469.736 85.104C469.032 83.888 467.944 82.864 466.472 82.032C465.064 81.2 463.144 80.784 460.712 80.784H450.728V102.096H460.616ZM561.103 140.88L507.535 92.496L511.663 94.8L511.951 138H497.839V64.56H498.415L550.831 112.752L547.759 111.408L547.471 67.344H561.487V140.88H561.103Z" fill="black"/>
<path d="M68.544 67.344V138H54.624V109.296H23.04V138H9.12V67.344H23.04V95.856H54.624V67.344H68.544ZM86.745 67.344H134.937V80.784H100.665V95.856H131.001V109.296H100.665V124.56H136.281V138H86.745V67.344ZM150.683 67.344H164.603V124.56H197.819V138H150.683V67.344ZM212.183 67.344H226.103V124.56H259.319V138H212.183V67.344ZM267.394 102.768C267.394 97.904 268.322 93.296 270.178 88.944C272.034 84.592 274.594 80.752 277.858 77.424C281.186 74.032 285.026 71.376 289.378 69.456C293.73 67.536 298.402 66.576 303.394 66.576C308.322 66.576 312.962 67.536 317.314 69.456C321.666 71.376 325.506 74.032 328.834 77.424C332.226 80.752 334.85 84.592 336.706 88.944C338.626 93.296 339.586 97.904 339.586 102.768C339.586 107.76 338.626 112.432 336.706 116.784C334.85 121.136 332.226 124.976 328.834 128.304C325.506 131.568 321.666 134.128 317.314 135.984C312.962 137.84 308.322 138.768 303.394 138.768C298.402 138.768 293.73 137.84 289.378 135.984C285.026 134.128 281.186 131.568 277.858 128.304C274.594 124.976 272.034 121.136 270.178 116.784C268.322 112.432 267.394 107.76 267.394 102.768ZM281.794 102.768C281.794 105.904 282.338 108.848 283.426 111.6C284.578 114.288 286.146 116.688 288.13 118.8C290.178 120.848 292.514 122.448 295.138 123.6C297.826 124.752 300.738 125.328 303.874 125.328C306.882 125.328 309.666 124.752 312.226 123.6C314.85 122.448 317.122 120.848 319.042 118.8C320.962 116.688 322.466 114.288 323.554 111.6C324.642 108.848 325.186 105.904 325.186 102.768C325.186 99.568 324.61 96.592 323.458 93.84C322.37 91.088 320.834 88.688 318.85 86.64C316.93 84.528 314.658 82.896 312.034 81.744C309.41 80.592 306.562 80.016 303.49 80.016C300.418 80.016 297.57 80.592 294.946 81.744C292.322 82.896 290.018 84.528 288.034 86.64C286.05 88.688 284.514 91.088 283.426 93.84C282.338 96.592 281.794 99.568 281.794 102.768Z" fill="black"/>
<mask id="path-3-inside-1_1_21" fill="white">
<path fill-rule="evenodd" clip-rule="evenodd" d="M398 12H583V197H398V172.9H386V197V209H398H583H595V197V12V0H583H398H386V12V38H398V12Z"/>
</mask>
<path fill-rule="evenodd" clip-rule="evenodd" d="M398 12H583V197H398V172.9H386V197V209H398H583H595V197V12V0H583H398H386V12V38H398V12Z" fill="#2DA7DD"/>
<path d="M583 12H584V11H583V12ZM398 12V11H397V12H398ZM583 197V198H584V197H583ZM398 197H397V198H398V197ZM398 172.9H399V171.9H398V172.9ZM386 172.9V171.9H385V172.9H386ZM386 209H385V210H386V209ZM595 209V210H596V209H595ZM595 0H596V-1H595V0ZM386 0V-1H385V0H386ZM386 38H385V39H386V38ZM398 38V39H399V38H398ZM583 11H398V13H583V11ZM584 197V12H582V197H584ZM398 198H583V196H398V198ZM397 172.9V197H399V172.9H397ZM398 171.9H386V173.9H398V171.9ZM385 172.9V197H387V172.9H385ZM385 197V209H387V197H385ZM386 210H398V208H386V210ZM398 210H583V208H398V210ZM583 210H595V208H583V210ZM596 209V197H594V209H596ZM596 197V12H594V197H596ZM596 12V0H594V12H596ZM595 -1H583V1H595V-1ZM583 -1H398V1H583V-1ZM398 -1H386V1H398V-1ZM385 0V12H387V0H385ZM385 12V38H387V12H385ZM386 39H398V37H386V39ZM397 12V38H399V12H397Z" fill="#2DA7DD" mask="url(#path-3-inside-1_1_21)"/>
<path d="M14.216 185.328C15.432 185.328 16.536 185.525 17.528 185.92C18.5307 186.315 19.384 186.875 20.088 187.6C20.8027 188.325 21.352 189.211 21.736 190.256C22.12 191.301 22.312 192.469 22.312 193.76C22.312 195.061 22.12 196.235 21.736 197.28C21.352 198.325 20.8027 199.216 20.088 199.952C19.384 200.688 18.5307 201.253 17.528 201.648C16.536 202.043 15.432 202.24 14.216 202.24C12.9893 202.24 11.8747 202.043 10.872 201.648C9.86933 201.253 9.01067 200.688 8.296 199.952C7.592 199.216 7.04267 198.325 6.648 197.28C6.264 196.235 6.072 195.061 6.072 193.76C6.072 192.469 6.264 191.301 6.648 190.256C7.04267 189.211 7.592 188.325 8.296 187.6C9.01067 186.875 9.86933 186.315 10.872 185.92C11.8747 185.525 12.9893 185.328 14.216 185.328ZM14.216 199.2C15.5813 199.2 16.5893 198.741 17.24 197.824C17.9013 196.907 18.232 195.563 18.232 193.792C18.232 192.021 17.9013 190.672 17.24 189.744C16.5893 188.816 15.5813 188.352 14.216 188.352C12.8293 188.352 11.8 188.821 11.128 189.76C10.4667 190.688 10.136 192.032 10.136 193.792C10.136 195.552 10.4667 196.896 11.128 197.824C11.8 198.741 12.8293 199.2 14.216 199.2ZM39.471 185.584V202H37.055C36.5323 202 36.2017 201.76 36.063 201.28L35.791 199.968C35.119 200.651 34.3777 201.205 33.567 201.632C32.7563 202.048 31.8017 202.256 30.703 202.256C29.807 202.256 29.0123 202.107 28.319 201.808C27.6363 201.499 27.0603 201.067 26.591 200.512C26.1217 199.957 25.7643 199.301 25.519 198.544C25.2843 197.776 25.167 196.933 25.167 196.016V185.584H29.119V196.016C29.119 197.019 29.3483 197.797 29.807 198.352C30.2763 198.896 30.975 199.168 31.903 199.168C32.5857 199.168 33.2257 199.019 33.823 198.72C34.4203 198.411 34.9857 197.989 35.519 197.456V185.584H39.471ZM48.8615 202.256C47.4322 202.256 46.3335 201.856 45.5655 201.056C44.8082 200.245 44.4295 199.131 44.4295 197.712V188.544H42.7495C42.5362 188.544 42.3548 188.475 42.2055 188.336C42.0562 188.197 41.9815 187.989 41.9815 187.712V186.144L44.6215 185.712L45.4535 181.232C45.5068 181.019 45.6082 180.853 45.7575 180.736C45.9068 180.619 46.0988 180.56 46.3335 180.56H48.3815V185.728H52.7655V188.544H48.3815V197.44C48.3815 197.952 48.5042 198.352 48.7495 198.64C49.0055 198.928 49.3522 199.072 49.7895 199.072C50.0348 199.072 50.2375 199.045 50.3975 198.992C50.5682 198.928 50.7122 198.864 50.8295 198.8C50.9575 198.736 51.0695 198.677 51.1655 198.624C51.2615 198.56 51.3575 198.528 51.4535 198.528C51.5708 198.528 51.6668 198.56 51.7415 198.624C51.8162 198.677 51.8962 198.763 51.9815 198.88L53.1655 200.8C52.5895 201.28 51.9282 201.643 51.1815 201.888C50.4348 202.133 49.6615 202.256 48.8615 202.256ZM65.3118 188.784C65.2051 188.955 65.0931 189.077 64.9758 189.152C64.8584 189.216 64.7091 189.248 64.5278 189.248C64.3358 189.248 64.1278 189.195 63.9038 189.088C63.6904 188.981 63.4398 188.864 63.1518 188.736C62.8638 188.597 62.5331 188.475 62.1597 188.368C61.7971 188.261 61.3651 188.208 60.8638 188.208C60.0851 188.208 59.4718 188.373 59.0238 188.704C58.5864 189.035 58.3678 189.467 58.3678 190C58.3678 190.352 58.4798 190.651 58.7038 190.896C58.9384 191.131 59.2424 191.339 59.6158 191.52C59.9998 191.701 60.4318 191.867 60.9118 192.016C61.3918 192.155 61.8771 192.309 62.3678 192.48C62.8691 192.651 63.3598 192.848 63.8398 193.072C64.3198 193.285 64.7464 193.563 65.1198 193.904C65.5038 194.235 65.8078 194.635 66.0318 195.104C66.2664 195.573 66.3838 196.139 66.3838 196.8C66.3838 197.589 66.2398 198.32 65.9518 198.992C65.6744 199.653 65.2584 200.229 64.7038 200.72C64.1491 201.2 63.4611 201.579 62.6398 201.856C61.8291 202.123 60.8904 202.256 59.8238 202.256C59.2584 202.256 58.7038 202.203 58.1598 202.096C57.6264 202 57.1091 201.861 56.6078 201.68C56.1171 201.499 55.6584 201.285 55.2318 201.04C54.8158 200.795 54.4478 200.528 54.1278 200.24L55.0398 198.736C55.1571 198.555 55.2958 198.416 55.4557 198.32C55.6157 198.224 55.8184 198.176 56.0638 198.176C56.3091 198.176 56.5384 198.245 56.7518 198.384C56.9758 198.523 57.2318 198.672 57.5198 198.832C57.8078 198.992 58.1438 199.141 58.5278 199.28C58.9224 199.419 59.4184 199.488 60.0158 199.488C60.4851 199.488 60.8851 199.435 61.2158 199.328C61.5571 199.211 61.8344 199.061 62.0478 198.88C62.2718 198.699 62.4317 198.491 62.5278 198.256C62.6344 198.011 62.6878 197.76 62.6878 197.504C62.6878 197.12 62.5704 196.805 62.3358 196.56C62.1118 196.315 61.8078 196.101 61.4237 195.92C61.0504 195.739 60.6184 195.579 60.1278 195.44C59.6478 195.291 59.1518 195.131 58.6398 194.96C58.1384 194.789 57.6424 194.592 57.1518 194.368C56.6718 194.133 56.2398 193.84 55.8558 193.488C55.4824 193.136 55.1784 192.704 54.9438 192.192C54.7198 191.68 54.6078 191.061 54.6078 190.336C54.6078 189.664 54.7411 189.024 55.0078 188.416C55.2744 187.808 55.6638 187.28 56.1758 186.832C56.6984 186.373 57.3438 186.011 58.1118 185.744C58.8904 185.467 59.7864 185.328 60.7998 185.328C61.9304 185.328 62.9598 185.515 63.8878 185.888C64.8158 186.261 65.5891 186.752 66.2078 187.36L65.3118 188.784ZM76.6223 185.328C77.8383 185.328 78.9423 185.525 79.9343 185.92C80.9369 186.315 81.7903 186.875 82.4943 187.6C83.2089 188.325 83.7582 189.211 84.1423 190.256C84.5263 191.301 84.7183 192.469 84.7183 193.76C84.7183 195.061 84.5263 196.235 84.1423 197.28C83.7582 198.325 83.2089 199.216 82.4943 199.952C81.7903 200.688 80.9369 201.253 79.9343 201.648C78.9423 202.043 77.8383 202.24 76.6223 202.24C75.3956 202.24 74.2809 202.043 73.2783 201.648C72.2756 201.253 71.4169 200.688 70.7023 199.952C69.9983 199.216 69.4489 198.325 69.0543 197.28C68.6703 196.235 68.4783 195.061 68.4783 193.76C68.4783 192.469 68.6703 191.301 69.0543 190.256C69.4489 189.211 69.9983 188.325 70.7023 187.6C71.4169 186.875 72.2756 186.315 73.2783 185.92C74.2809 185.525 75.3956 185.328 76.6223 185.328ZM76.6223 199.2C77.9876 199.2 78.9956 198.741 79.6463 197.824C80.3076 196.907 80.6383 195.563 80.6383 193.792C80.6383 192.021 80.3076 190.672 79.6463 189.744C78.9956 188.816 77.9876 188.352 76.6223 188.352C75.2356 188.352 74.2063 188.821 73.5343 189.76C72.8729 190.688 72.5423 192.032 72.5423 193.792C72.5423 195.552 72.8729 196.896 73.5343 197.824C74.2063 198.741 75.2356 199.2 76.6223 199.2ZM101.877 185.584V202H99.4613C98.9386 202 98.6079 201.76 98.4693 201.28L98.1973 199.968C97.5253 200.651 96.7839 201.205 95.9733 201.632C95.1626 202.048 94.2079 202.256 93.1093 202.256C92.2133 202.256 91.4186 202.107 90.7253 201.808C90.0426 201.499 89.4666 201.067 88.9973 200.512C88.5279 199.957 88.1706 199.301 87.9253 198.544C87.6906 197.776 87.5733 196.933 87.5733 196.016V185.584H91.5253V196.016C91.5253 197.019 91.7546 197.797 92.2133 198.352C92.6826 198.896 93.3813 199.168 94.3093 199.168C94.9919 199.168 95.6319 199.019 96.2293 198.72C96.8266 198.411 97.3919 197.989 97.9253 197.456V185.584H101.877ZM109.524 188.432C110.036 187.451 110.644 186.683 111.348 186.128C112.052 185.563 112.884 185.28 113.844 185.28C114.601 185.28 115.209 185.445 115.668 185.776L115.412 188.736C115.358 188.928 115.278 189.067 115.172 189.152C115.076 189.227 114.942 189.264 114.772 189.264C114.612 189.264 114.372 189.237 114.052 189.184C113.742 189.131 113.438 189.104 113.14 189.104C112.702 189.104 112.313 189.168 111.972 189.296C111.63 189.424 111.321 189.611 111.044 189.856C110.777 190.091 110.537 190.379 110.324 190.72C110.121 191.061 109.929 191.451 109.748 191.888V202H105.796V185.584H108.116C108.521 185.584 108.804 185.659 108.964 185.808C109.124 185.947 109.23 186.203 109.284 186.576L109.524 188.432ZM129.025 189.056C128.907 189.205 128.79 189.323 128.673 189.408C128.566 189.493 128.406 189.536 128.193 189.536C127.99 189.536 127.793 189.477 127.601 189.36C127.409 189.232 127.179 189.093 126.913 188.944C126.646 188.784 126.326 188.645 125.953 188.528C125.59 188.4 125.137 188.336 124.593 188.336C123.899 188.336 123.291 188.464 122.769 188.72C122.246 188.965 121.809 189.323 121.457 189.792C121.115 190.261 120.859 190.832 120.689 191.504C120.518 192.165 120.433 192.917 120.433 193.76C120.433 194.635 120.523 195.413 120.705 196.096C120.897 196.779 121.169 197.355 121.521 197.824C121.873 198.283 122.299 198.635 122.801 198.88C123.302 199.115 123.867 199.232 124.497 199.232C125.126 199.232 125.633 199.157 126.017 199.008C126.411 198.848 126.742 198.677 127.009 198.496C127.275 198.304 127.505 198.133 127.697 197.984C127.899 197.824 128.123 197.744 128.369 197.744C128.689 197.744 128.929 197.867 129.089 198.112L130.225 199.552C129.787 200.064 129.313 200.496 128.801 200.848C128.289 201.189 127.755 201.467 127.201 201.68C126.657 201.883 126.091 202.027 125.505 202.112C124.929 202.197 124.353 202.24 123.777 202.24C122.763 202.24 121.809 202.053 120.913 201.68C120.017 201.296 119.233 200.741 118.561 200.016C117.889 199.291 117.355 198.405 116.961 197.36C116.577 196.304 116.385 195.104 116.385 193.76C116.385 192.555 116.555 191.44 116.897 190.416C117.249 189.381 117.761 188.491 118.433 187.744C119.105 186.987 119.937 186.395 120.929 185.968C121.921 185.541 123.062 185.328 124.352 185.328C125.579 185.328 126.651 185.525 127.569 185.92C128.497 186.315 129.329 186.88 130.065 187.616L129.025 189.056ZM142.997 191.904C142.997 191.392 142.922 190.912 142.773 190.464C142.634 190.005 142.421 189.605 142.133 189.264C141.845 188.923 141.477 188.656 141.029 188.464C140.591 188.261 140.079 188.16 139.493 188.16C138.351 188.16 137.45 188.485 136.789 189.136C136.138 189.787 135.722 190.709 135.541 191.904H142.997ZM135.461 194.288C135.525 195.131 135.674 195.861 135.909 196.48C136.143 197.088 136.453 197.595 136.837 198C137.221 198.395 137.674 198.693 138.197 198.896C138.73 199.088 139.317 199.184 139.957 199.184C140.597 199.184 141.146 199.109 141.605 198.96C142.074 198.811 142.479 198.645 142.821 198.464C143.173 198.283 143.477 198.117 143.733 197.968C143.999 197.819 144.255 197.744 144.501 197.744C144.831 197.744 145.077 197.867 145.237 198.112L146.373 199.552C145.935 200.064 145.445 200.496 144.901 200.848C144.357 201.189 143.786 201.467 143.189 201.68C142.602 201.883 141.999 202.027 141.381 202.112C140.773 202.197 140.181 202.24 139.605 202.24C138.463 202.24 137.402 202.053 136.421 201.68C135.439 201.296 134.586 200.736 133.861 200C133.135 199.253 132.565 198.336 132.149 197.248C131.733 196.149 131.525 194.88 131.525 193.44C131.525 192.32 131.706 191.269 132.069 190.288C132.431 189.296 132.949 188.437 133.621 187.712C134.303 186.976 135.13 186.395 136.101 185.968C137.082 185.541 138.186 185.328 139.413 185.328C140.447 185.328 141.402 185.493 142.277 185.824C143.151 186.155 143.903 186.64 144.533 187.28C145.162 187.909 145.653 188.688 146.005 189.616C146.367 190.533 146.549 191.584 146.549 192.768C146.549 193.365 146.485 193.771 146.357 193.984C146.229 194.187 145.983 194.288 145.621 194.288H135.461ZM159.819 189.776C159.371 189.232 158.88 188.848 158.347 188.624C157.824 188.4 157.259 188.288 156.651 188.288C156.053 188.288 155.515 188.4 155.035 188.624C154.555 188.848 154.144 189.189 153.803 189.648C153.461 190.096 153.2 190.672 153.019 191.376C152.837 192.069 152.747 192.891 152.747 193.84C152.747 194.8 152.821 195.616 152.971 196.288C153.131 196.949 153.355 197.493 153.643 197.92C153.931 198.336 154.283 198.64 154.699 198.832C155.115 199.013 155.579 199.104 156.091 199.104C156.912 199.104 157.611 198.933 158.187 198.592C158.763 198.251 159.307 197.765 159.819 197.136V189.776ZM163.771 178.224V202H161.355C160.832 202 160.501 201.76 160.363 201.28L160.027 199.696C159.365 200.453 158.603 201.067 157.739 201.536C156.885 202.005 155.888 202.24 154.747 202.24C153.851 202.24 153.029 202.053 152.283 201.68C151.536 201.307 150.891 200.768 150.347 200.064C149.813 199.349 149.397 198.469 149.099 197.424C148.811 196.379 148.667 195.184 148.667 193.84C148.667 192.624 148.832 191.493 149.163 190.448C149.493 189.403 149.968 188.496 150.587 187.728C151.205 186.96 151.947 186.363 152.811 185.936C153.675 185.499 154.645 185.28 155.723 185.28C156.64 185.28 157.424 185.424 158.075 185.712C158.725 186 159.307 186.389 159.819 186.88V178.224H163.771Z" fill="black"/>
<path d="M258.968 188.784C258.861 188.955 258.749 189.077 258.632 189.152C258.515 189.216 258.365 189.248 258.184 189.248C257.992 189.248 257.784 189.195 257.56 189.088C257.347 188.981 257.096 188.864 256.808 188.736C256.52 188.597 256.189 188.475 255.816 188.368C255.453 188.261 255.021 188.208 254.52 188.208C253.741 188.208 253.128 188.373 252.68 188.704C252.243 189.035 252.024 189.467 252.024 190C252.024 190.352 252.136 190.651 252.36 190.896C252.595 191.131 252.899 191.339 253.272 191.52C253.656 191.701 254.088 191.867 254.568 192.016C255.048 192.155 255.533 192.309 256.024 192.48C256.525 192.651 257.016 192.848 257.496 193.072C257.976 193.285 258.403 193.563 258.776 193.904C259.16 194.235 259.464 194.635 259.688 195.104C259.923 195.573 260.04 196.139 260.04 196.8C260.04 197.589 259.896 198.32 259.608 198.992C259.331 199.653 258.915 200.229 258.36 200.72C257.805 201.2 257.117 201.579 256.296 201.856C255.485 202.123 254.547 202.256 253.48 202.256C252.915 202.256 252.36 202.203 251.816 202.096C251.283 202 250.765 201.861 250.264 201.68C249.773 201.499 249.315 201.285 248.888 201.04C248.472 200.795 248.104 200.528 247.784 200.24L248.696 198.736C248.813 198.555 248.952 198.416 249.112 198.32C249.272 198.224 249.475 198.176 249.72 198.176C249.965 198.176 250.195 198.245 250.408 198.384C250.632 198.523 250.888 198.672 251.176 198.832C251.464 198.992 251.8 199.141 252.184 199.28C252.579 199.419 253.075 199.488 253.672 199.488C254.141 199.488 254.541 199.435 254.872 199.328C255.213 199.211 255.491 199.061 255.704 198.88C255.928 198.699 256.088 198.491 256.184 198.256C256.291 198.011 256.344 197.76 256.344 197.504C256.344 197.12 256.227 196.805 255.992 196.56C255.768 196.315 255.464 196.101 255.08 195.92C254.707 195.739 254.275 195.579 253.784 195.44C253.304 195.291 252.808 195.131 252.296 194.96C251.795 194.789 251.299 194.592 250.808 194.368C250.328 194.133 249.896 193.84 249.512 193.488C249.139 193.136 248.835 192.704 248.6 192.192C248.376 191.68 248.264 191.061 248.264 190.336C248.264 189.664 248.397 189.024 248.664 188.416C248.931 187.808 249.32 187.28 249.832 186.832C250.355 186.373 251 186.011 251.768 185.744C252.547 185.467 253.443 185.328 254.456 185.328C255.587 185.328 256.616 185.515 257.544 185.888C258.472 186.261 259.245 186.752 259.864 187.36L258.968 188.784ZM273.591 191.904C273.591 191.392 273.516 190.912 273.367 190.464C273.228 190.005 273.015 189.605 272.727 189.264C272.439 188.923 272.071 188.656 271.623 188.464C271.185 188.261 270.673 188.16 270.087 188.16C268.945 188.16 268.044 188.485 267.383 189.136C266.732 189.787 266.316 190.709 266.135 191.904H273.591ZM266.055 194.288C266.119 195.131 266.268 195.861 266.503 196.48C266.737 197.088 267.047 197.595 267.431 198C267.815 198.395 268.268 198.693 268.791 198.896C269.324 199.088 269.911 199.184 270.551 199.184C271.191 199.184 271.74 199.109 272.199 198.96C272.668 198.811 273.073 198.645 273.415 198.464C273.767 198.283 274.071 198.117 274.327 197.968C274.593 197.819 274.849 197.744 275.095 197.744C275.425 197.744 275.671 197.867 275.831 198.112L276.967 199.552C276.529 200.064 276.039 200.496 275.495 200.848C274.951 201.189 274.38 201.467 273.783 201.68C273.196 201.883 272.593 202.027 271.975 202.112C271.367 202.197 270.775 202.24 270.199 202.24C269.057 202.24 267.996 202.053 267.015 201.68C266.033 201.296 265.18 200.736 264.455 200C263.729 199.253 263.159 198.336 262.743 197.248C262.327 196.149 262.118 194.88 262.118 193.44C262.118 192.32 262.3 191.269 262.663 190.288C263.025 189.296 263.543 188.437 264.215 187.712C264.897 186.976 265.724 186.395 266.695 185.968C267.676 185.541 268.78 185.328 270.007 185.328C271.041 185.328 271.996 185.493 272.871 185.824C273.745 186.155 274.497 186.64 275.127 187.28C275.756 187.909 276.247 188.688 276.599 189.616C276.961 190.533 277.142 191.584 277.142 192.768C277.142 193.365 277.079 193.771 276.951 193.984C276.823 194.187 276.577 194.288 276.215 194.288H266.055ZM283.836 188.432C284.348 187.451 284.956 186.683 285.66 186.128C286.364 185.563 287.196 185.28 288.156 185.28C288.914 185.28 289.522 185.445 289.98 185.776L289.724 188.736C289.671 188.928 289.591 189.067 289.484 189.152C289.388 189.227 289.255 189.264 289.084 189.264C288.924 189.264 288.684 189.237 288.364 189.184C288.055 189.131 287.751 189.104 287.452 189.104C287.015 189.104 286.626 189.168 286.284 189.296C285.943 189.424 285.634 189.611 285.356 189.856C285.09 190.091 284.85 190.379 284.636 190.72C284.434 191.061 284.242 191.451 284.06 191.888V202H280.108V185.584H282.428C282.834 185.584 283.116 185.659 283.276 185.808C283.436 185.947 283.543 186.203 283.596 186.576L283.836 188.432ZM306.846 185.584L300.334 202H296.75L290.238 185.584H293.502C293.8 185.584 294.046 185.653 294.238 185.792C294.44 185.931 294.574 186.107 294.638 186.32L297.806 195.088C297.976 195.6 298.126 196.101 298.254 196.592C298.382 197.083 298.494 197.573 298.59 198.064C298.696 197.573 298.814 197.083 298.942 196.592C299.07 196.101 299.224 195.6 299.406 195.088L302.638 186.32C302.712 186.107 302.846 185.931 303.038 185.792C303.23 185.653 303.459 185.584 303.726 185.584H306.846ZM313.048 185.584V202H309.08V185.584H313.048ZM313.592 180.8C313.592 181.141 313.523 181.461 313.384 181.76C313.245 182.059 313.059 182.32 312.824 182.544C312.6 182.768 312.333 182.949 312.024 183.088C311.715 183.216 311.384 183.28 311.032 183.28C310.691 183.28 310.365 183.216 310.056 183.088C309.757 182.949 309.496 182.768 309.272 182.544C309.048 182.32 308.867 182.059 308.728 181.76C308.6 181.461 308.536 181.141 308.536 180.8C308.536 180.448 308.6 180.117 308.728 179.808C308.867 179.499 309.048 179.232 309.272 179.008C309.496 178.784 309.757 178.608 310.056 178.48C310.365 178.341 310.691 178.272 311.032 178.272C311.384 178.272 311.715 178.341 312.024 178.48C312.333 178.608 312.6 178.784 312.824 179.008C313.059 179.232 313.245 179.499 313.384 179.808C313.523 180.117 313.592 180.448 313.592 180.8ZM328.837 189.056C328.72 189.205 328.602 189.323 328.485 189.408C328.378 189.493 328.218 189.536 328.005 189.536C327.802 189.536 327.605 189.477 327.413 189.36C327.221 189.232 326.992 189.093 326.725 188.944C326.458 188.784 326.138 188.645 325.765 188.528C325.402 188.4 324.949 188.336 324.405 188.336C323.712 188.336 323.104 188.464 322.581 188.72C322.058 188.965 321.621 189.323 321.269 189.792C320.928 190.261 320.672 190.832 320.501 191.504C320.33 192.165 320.245 192.917 320.245 193.76C320.245 194.635 320.336 195.413 320.517 196.096C320.709 196.779 320.981 197.355 321.333 197.824C321.685 198.283 322.112 198.635 322.613 198.88C323.114 199.115 323.68 199.232 324.309 199.232C324.938 199.232 325.445 199.157 325.829 199.008C326.224 198.848 326.554 198.677 326.821 198.496C327.088 198.304 327.317 198.133 327.509 197.984C327.712 197.824 327.936 197.744 328.181 197.744C328.501 197.744 328.741 197.867 328.901 198.112L330.037 199.552C329.6 200.064 329.125 200.496 328.613 200.848C328.101 201.189 327.568 201.467 327.013 201.68C326.469 201.883 325.904 202.027 325.317 202.112C324.741 202.197 324.165 202.24 323.589 202.24C322.576 202.24 321.621 202.053 320.725 201.68C319.829 201.296 319.045 200.741 318.373 200.016C317.701 199.291 317.168 198.405 316.773 197.36C316.389 196.304 316.197 195.104 316.197 193.76C316.197 192.555 316.368 191.44 316.709 190.416C317.061 189.381 317.573 188.491 318.245 187.744C318.917 186.987 319.749 186.395 320.741 185.968C321.733 185.541 322.874 185.328 324.165 185.328C325.392 185.328 326.464 185.525 327.381 185.92C328.309 186.315 329.141 186.88 329.877 187.616L328.837 189.056ZM342.809 191.904C342.809 191.392 342.735 190.912 342.585 190.464C342.447 190.005 342.233 189.605 341.945 189.264C341.657 188.923 341.289 188.656 340.841 188.464C340.404 188.261 339.892 188.16 339.305 188.16C338.164 188.16 337.263 188.485 336.601 189.136C335.951 189.787 335.535 190.709 335.353 191.904H342.809ZM335.273 194.288C335.337 195.131 335.487 195.861 335.721 196.48C335.956 197.088 336.265 197.595 336.649 198C337.033 198.395 337.487 198.693 338.009 198.896C338.543 199.088 339.129 199.184 339.769 199.184C340.409 199.184 340.959 199.109 341.417 198.96C341.887 198.811 342.292 198.645 342.633 198.464C342.985 198.283 343.289 198.117 343.545 197.968C343.812 197.819 344.068 197.744 344.313 197.744C344.644 197.744 344.889 197.867 345.049 198.112L346.185 199.552C345.748 200.064 345.257 200.496 344.713 200.848C344.169 201.189 343.599 201.467 343.001 201.68C342.415 201.883 341.812 202.027 341.193 202.112C340.585 202.197 339.993 202.24 339.417 202.24C338.276 202.24 337.215 202.053 336.233 201.68C335.252 201.296 334.399 200.736 333.673 200C332.948 199.253 332.377 198.336 331.961 197.248C331.545 196.149 331.337 194.88 331.337 193.44C331.337 192.32 331.519 191.269 331.881 190.288C332.244 189.296 332.761 188.437 333.433 187.712C334.116 186.976 334.943 186.395 335.913 185.968C336.895 185.541 337.999 185.328 339.225 185.328C340.26 185.328 341.215 185.493 342.089 185.824C342.964 186.155 343.716 186.64 344.345 187.28C344.975 187.909 345.465 188.688 345.817 189.616C346.18 190.533 346.361 191.584 346.361 192.768C346.361 193.365 346.297 193.771 346.169 193.984C346.041 194.187 345.796 194.288 345.433 194.288H335.273Z" fill="black"/>
<path d="M195.168 178.688L185.824 202H180.928L171.584 178.688H175.936C176.405 178.688 176.784 178.8 177.072 179.024C177.36 179.237 177.579 179.515 177.728 179.856L182.24 192.336C182.453 192.88 182.661 193.477 182.864 194.128C183.067 194.768 183.259 195.44 183.44 196.144C183.589 195.44 183.755 194.768 183.936 194.128C184.128 193.477 184.331 192.88 184.544 192.336L189.024 179.856C189.141 179.557 189.349 179.291 189.648 179.056C189.957 178.811 190.336 178.688 190.784 178.688H195.168ZM205.23 190.128C206.638 190.128 207.651 189.792 208.27 189.12C208.889 188.448 209.198 187.509 209.198 186.304C209.198 185.771 209.118 185.285 208.958 184.848C208.798 184.411 208.553 184.037 208.222 183.728C207.902 183.408 207.491 183.163 206.99 182.992C206.499 182.821 205.913 182.736 205.23 182.736H202.414V190.128H205.23ZM205.23 178.688C206.873 178.688 208.281 178.885 209.454 179.28C210.638 179.664 211.609 180.197 212.366 180.88C213.134 181.563 213.699 182.368 214.062 183.296C214.425 184.224 214.606 185.227 214.606 186.304C214.606 187.467 214.419 188.533 214.046 189.504C213.673 190.475 213.102 191.307 212.334 192C211.566 192.693 210.59 193.237 209.406 193.632C208.233 194.016 206.841 194.208 205.23 194.208H202.414V202H197.006V178.688H205.23ZM237.702 178.688V202H234.886C234.47 202 234.118 201.936 233.83 201.808C233.552 201.669 233.275 201.435 232.998 201.104L222.006 187.2C222.048 187.616 222.075 188.021 222.086 188.416C222.107 188.8 222.118 189.163 222.118 189.504V202H217.35V178.688H220.198C220.432 178.688 220.63 178.699 220.79 178.72C220.95 178.741 221.094 178.784 221.222 178.848C221.35 178.901 221.472 178.981 221.59 179.088C221.707 179.195 221.84 179.339 221.99 179.52L233.078 193.52C233.024 193.072 232.987 192.64 232.966 192.224C232.944 191.797 232.934 191.397 232.934 191.024V178.688H237.702Z" fill="#2DA7DD"/>
</svg>
