<svg width="582" height="209" viewBox="0 0 582 209" fill="none" xmlns="http://www.w3.org/2000/svg">
<path d="M363.776 67.344L384.416 118.224L376.352 116.592L395.072 67.344H411.584L379.328 141.264L347.072 67.344H363.776ZM445.216 67.344C451.04 67.344 455.968 68.336 460 70.32C464.032 72.24 467.104 74.992 469.216 78.576C471.328 82.096 472.384 86.288 472.384 91.152C472.384 94.032 471.936 96.944 471.04 99.888C470.208 102.768 468.832 105.392 466.912 107.76C465.056 110.128 462.528 112.048 459.328 113.52C456.192 114.928 452.32 115.632 447.712 115.632H437.728V138H423.808V67.344H445.216ZM447.616 102.096C449.728 102.096 451.488 101.744 452.896 101.04C454.304 100.272 455.392 99.344 456.16 98.256C456.992 97.104 457.568 95.92 457.888 94.704C458.272 93.488 458.464 92.432 458.464 91.536C458.464 90.832 458.336 89.904 458.08 88.752C457.888 87.536 457.44 86.32 456.736 85.104C456.032 83.888 454.944 82.864 453.472 82.032C452.064 81.2 450.144 80.784 447.712 80.784H437.728V102.096H447.616ZM548.103 140.88L494.535 92.496L498.663 94.8L498.951 138H484.839V64.56H485.415L537.831 112.752L534.759 111.408L534.471 67.344H548.487V140.88H548.103Z" fill="#F7F7F7"/>
<path d="M8.925 64.5H23.73V95.37H52.29V64.5H67.095V138H52.29V106.92H23.73V138H8.925V64.5ZM110.841 138C101.531 138 94.8464 136.04 90.7864 132.12C86.7264 128.2 84.6964 122.53 84.6964 115.11V87.39C84.6964 79.97 86.7264 74.3 90.7864 70.38C94.8464 66.46 101.531 64.5 110.841 64.5H135.411V76.05H110.841C106.991 76.05 104.121 76.96 102.231 78.78C100.411 80.6 99.5014 83.47 99.5014 87.39V95.475H130.791V107.025H99.5014V115.11C99.5014 118.96 100.411 121.83 102.231 123.72C104.121 125.54 106.991 126.45 110.841 126.45H135.621V138H110.841ZM173.867 138C164.907 138 158.467 136.04 154.547 132.12C150.697 128.2 148.772 122.53 148.772 115.11V64.5H163.577V115.11C163.577 118.96 164.417 121.83 166.097 123.72C167.777 125.54 170.367 126.45 173.867 126.45H197.387V138H173.867ZM234.541 138C225.581 138 219.141 136.04 215.221 132.12C211.371 128.2 209.446 122.53 209.446 115.11V64.5H224.251V115.11C224.251 118.96 225.091 121.83 226.771 123.72C228.451 125.54 231.041 126.45 234.541 126.45H258.061V138H234.541ZM296.447 139.26C286.717 139.26 279.262 137.02 274.082 132.54C268.972 127.99 266.417 121.305 266.417 112.485V90.015C266.417 81.195 268.972 74.545 274.082 70.065C279.262 65.515 286.717 63.24 296.447 63.24C306.177 63.24 313.597 65.515 318.707 70.065C323.887 74.545 326.477 81.195 326.477 90.015V112.485C326.477 121.305 323.887 127.99 318.707 132.54C313.597 137.02 306.177 139.26 296.447 139.26ZM296.447 127.71C301.347 127.71 305.092 126.415 307.682 123.825C310.342 121.165 311.672 117.385 311.672 112.485V90.015C311.672 85.115 310.342 81.37 307.682 78.78C305.092 76.12 301.347 74.79 296.447 74.79C291.547 74.79 287.767 76.12 285.107 78.78C282.517 81.37 281.222 85.115 281.222 90.015V112.485C281.222 117.385 282.517 121.165 285.107 123.825C287.767 126.415 291.547 127.71 296.447 127.71Z" fill="#F7F7F7"/>
<mask id="path-3-inside-1_5_3" fill="white">
<path fill-rule="evenodd" clip-rule="evenodd" d="M385 12H570V197H385V172.9H373V197V209H385H570H582V197V12V0H570H385H373V12V38H385V12Z"/>
</mask>
<path fill-rule="evenodd" clip-rule="evenodd" d="M385 12H570V197H385V172.9H373V197V209H385H570H582V197V12V0H570H385H373V12V38H385V12Z" fill="#2DA7DD"/>
<path d="M570 12H571V11H570V12ZM385 12V11H384V12H385ZM570 197V198H571V197H570ZM385 197H384V198H385V197ZM385 172.9H386V171.9H385V172.9ZM373 172.9V171.9H372V172.9H373ZM373 209H372V210H373V209ZM582 209V210H583V209H582ZM582 0H583V-1H582V0ZM373 0V-1H372V0H373ZM373 38H372V39H373V38ZM385 38V39H386V38H385ZM570 11H385V13H570V11ZM571 197V12H569V197H571ZM385 198H570V196H385V198ZM384 172.9V197H386V172.9H384ZM385 171.9H373V173.9H385V171.9ZM372 172.9V197H374V172.9H372ZM372 197V209H374V197H372ZM373 210H385V208H373V210ZM385 210H570V208H385V210ZM570 210H582V208H570V210ZM583 209V197H581V209H583ZM583 197V12H581V197H583ZM583 12V0H581V12H583ZM582 -1H570V1H582V-1ZM570 -1H385V1H570V-1ZM385 -1H373V1H385V-1ZM372 0V12H374V0H372ZM372 12V38H374V12H372ZM373 39H385V37H373V39ZM384 12V38H386V12H384Z" fill="#2DA7DD" mask="url(#path-3-inside-1_5_3)"/>
<path d="M17.216 185.328C18.432 185.328 19.536 185.525 20.528 185.92C21.5307 186.315 22.384 186.875 23.088 187.6C23.8027 188.325 24.352 189.211 24.736 190.256C25.12 191.301 25.312 192.469 25.312 193.76C25.312 195.061 25.12 196.235 24.736 197.28C24.352 198.325 23.8027 199.216 23.088 199.952C22.384 200.688 21.5307 201.253 20.528 201.648C19.536 202.043 18.432 202.24 17.216 202.24C15.9893 202.24 14.8747 202.043 13.872 201.648C12.8693 201.253 12.0107 200.688 11.296 199.952C10.592 199.216 10.0427 198.325 9.648 197.28C9.264 196.235 9.072 195.061 9.072 193.76C9.072 192.469 9.264 191.301 9.648 190.256C10.0427 189.211 10.592 188.325 11.296 187.6C12.0107 186.875 12.8693 186.315 13.872 185.92C14.8747 185.525 15.9893 185.328 17.216 185.328ZM17.216 199.2C18.5813 199.2 19.5893 198.741 20.24 197.824C20.9013 196.907 21.232 195.563 21.232 193.792C21.232 192.021 20.9013 190.672 20.24 189.744C19.5893 188.816 18.5813 188.352 17.216 188.352C15.8293 188.352 14.8 188.821 14.128 189.76C13.4667 190.688 13.136 192.032 13.136 193.792C13.136 195.552 13.4667 196.896 14.128 197.824C14.8 198.741 15.8293 199.2 17.216 199.2ZM42.471 185.584V202H40.055C39.5323 202 39.2017 201.76 39.063 201.28L38.791 199.968C38.119 200.651 37.3777 201.205 36.567 201.632C35.7563 202.048 34.8017 202.256 33.703 202.256C32.807 202.256 32.0123 202.107 31.319 201.808C30.6363 201.499 30.0603 201.067 29.591 200.512C29.1217 199.957 28.7643 199.301 28.519 198.544C28.2843 197.776 28.167 196.933 28.167 196.016V185.584H32.119V196.016C32.119 197.019 32.3483 197.797 32.807 198.352C33.2763 198.896 33.975 199.168 34.903 199.168C35.5857 199.168 36.2257 199.019 36.823 198.72C37.4203 198.411 37.9857 197.989 38.519 197.456V185.584H42.471ZM51.8615 202.256C50.4322 202.256 49.3335 201.856 48.5655 201.056C47.8082 200.245 47.4295 199.131 47.4295 197.712V188.544H45.7495C45.5362 188.544 45.3548 188.475 45.2055 188.336C45.0562 188.197 44.9815 187.989 44.9815 187.712V186.144L47.6215 185.712L48.4535 181.232C48.5068 181.019 48.6082 180.853 48.7575 180.736C48.9068 180.619 49.0988 180.56 49.3335 180.56H51.3815V185.728H55.7655V188.544H51.3815V197.44C51.3815 197.952 51.5042 198.352 51.7495 198.64C52.0055 198.928 52.3522 199.072 52.7895 199.072C53.0348 199.072 53.2375 199.045 53.3975 198.992C53.5682 198.928 53.7122 198.864 53.8295 198.8C53.9575 198.736 54.0695 198.677 54.1655 198.624C54.2615 198.56 54.3575 198.528 54.4535 198.528C54.5708 198.528 54.6668 198.56 54.7415 198.624C54.8162 198.677 54.8962 198.763 54.9815 198.88L56.1655 200.8C55.5895 201.28 54.9282 201.643 54.1815 201.888C53.4348 202.133 52.6615 202.256 51.8615 202.256ZM68.3118 188.784C68.2051 188.955 68.0931 189.077 67.9758 189.152C67.8584 189.216 67.7091 189.248 67.5278 189.248C67.3358 189.248 67.1278 189.195 66.9038 189.088C66.6904 188.981 66.4398 188.864 66.1518 188.736C65.8638 188.597 65.5331 188.475 65.1597 188.368C64.7971 188.261 64.3651 188.208 63.8638 188.208C63.0851 188.208 62.4718 188.373 62.0238 188.704C61.5864 189.035 61.3678 189.467 61.3678 190C61.3678 190.352 61.4798 190.651 61.7038 190.896C61.9384 191.131 62.2424 191.339 62.6158 191.52C62.9998 191.701 63.4318 191.867 63.9118 192.016C64.3918 192.155 64.8771 192.309 65.3678 192.48C65.8691 192.651 66.3598 192.848 66.8398 193.072C67.3198 193.285 67.7464 193.563 68.1198 193.904C68.5038 194.235 68.8078 194.635 69.0318 195.104C69.2664 195.573 69.3838 196.139 69.3838 196.8C69.3838 197.589 69.2398 198.32 68.9518 198.992C68.6744 199.653 68.2584 200.229 67.7038 200.72C67.1491 201.2 66.4611 201.579 65.6398 201.856C64.8291 202.123 63.8904 202.256 62.8238 202.256C62.2584 202.256 61.7038 202.203 61.1598 202.096C60.6264 202 60.1091 201.861 59.6078 201.68C59.1171 201.499 58.6584 201.285 58.2318 201.04C57.8158 200.795 57.4478 200.528 57.1278 200.24L58.0398 198.736C58.1571 198.555 58.2958 198.416 58.4557 198.32C58.6157 198.224 58.8184 198.176 59.0638 198.176C59.3091 198.176 59.5384 198.245 59.7518 198.384C59.9758 198.523 60.2318 198.672 60.5198 198.832C60.8078 198.992 61.1438 199.141 61.5278 199.28C61.9224 199.419 62.4184 199.488 63.0158 199.488C63.4851 199.488 63.8851 199.435 64.2158 199.328C64.5571 199.211 64.8344 199.061 65.0478 198.88C65.2718 198.699 65.4317 198.491 65.5278 198.256C65.6344 198.011 65.6878 197.76 65.6878 197.504C65.6878 197.12 65.5704 196.805 65.3358 196.56C65.1118 196.315 64.8078 196.101 64.4237 195.92C64.0504 195.739 63.6184 195.579 63.1278 195.44C62.6478 195.291 62.1518 195.131 61.6398 194.96C61.1384 194.789 60.6424 194.592 60.1518 194.368C59.6718 194.133 59.2398 193.84 58.8558 193.488C58.4824 193.136 58.1784 192.704 57.9438 192.192C57.7198 191.68 57.6078 191.061 57.6078 190.336C57.6078 189.664 57.7411 189.024 58.0078 188.416C58.2744 187.808 58.6638 187.28 59.1758 186.832C59.6984 186.373 60.3438 186.011 61.1118 185.744C61.8904 185.467 62.7864 185.328 63.7998 185.328C64.9304 185.328 65.9598 185.515 66.8878 185.888C67.8158 186.261 68.5891 186.752 69.2078 187.36L68.3118 188.784ZM79.6223 185.328C80.8383 185.328 81.9423 185.525 82.9343 185.92C83.9369 186.315 84.7903 186.875 85.4943 187.6C86.2089 188.325 86.7582 189.211 87.1423 190.256C87.5263 191.301 87.7183 192.469 87.7183 193.76C87.7183 195.061 87.5263 196.235 87.1423 197.28C86.7582 198.325 86.2089 199.216 85.4943 199.952C84.7903 200.688 83.9369 201.253 82.9343 201.648C81.9423 202.043 80.8383 202.24 79.6223 202.24C78.3956 202.24 77.2809 202.043 76.2783 201.648C75.2756 201.253 74.4169 200.688 73.7023 199.952C72.9983 199.216 72.4489 198.325 72.0543 197.28C71.6703 196.235 71.4783 195.061 71.4783 193.76C71.4783 192.469 71.6703 191.301 72.0543 190.256C72.4489 189.211 72.9983 188.325 73.7023 187.6C74.4169 186.875 75.2756 186.315 76.2783 185.92C77.2809 185.525 78.3956 185.328 79.6223 185.328ZM79.6223 199.2C80.9876 199.2 81.9956 198.741 82.6463 197.824C83.3076 196.907 83.6383 195.563 83.6383 193.792C83.6383 192.021 83.3076 190.672 82.6463 189.744C81.9956 188.816 80.9876 188.352 79.6223 188.352C78.2356 188.352 77.2063 188.821 76.5343 189.76C75.8729 190.688 75.5423 192.032 75.5423 193.792C75.5423 195.552 75.8729 196.896 76.5343 197.824C77.2063 198.741 78.2356 199.2 79.6223 199.2ZM104.877 185.584V202H102.461C101.939 202 101.608 201.76 101.469 201.28L101.197 199.968C100.525 200.651 99.7839 201.205 98.9733 201.632C98.1626 202.048 97.2079 202.256 96.1093 202.256C95.2133 202.256 94.4186 202.107 93.7253 201.808C93.0426 201.499 92.4666 201.067 91.9973 200.512C91.5279 199.957 91.1706 199.301 90.9253 198.544C90.6906 197.776 90.5733 196.933 90.5733 196.016V185.584H94.5253V196.016C94.5253 197.019 94.7546 197.797 95.2133 198.352C95.6826 198.896 96.3813 199.168 97.3093 199.168C97.9919 199.168 98.6319 199.019 99.2293 198.72C99.8266 198.411 100.392 197.989 100.925 197.456V185.584H104.877ZM112.524 188.432C113.036 187.451 113.644 186.683 114.348 186.128C115.052 185.563 115.884 185.28 116.844 185.28C117.601 185.28 118.209 185.445 118.668 185.776L118.412 188.736C118.358 188.928 118.278 189.067 118.172 189.152C118.076 189.227 117.942 189.264 117.772 189.264C117.612 189.264 117.372 189.237 117.052 189.184C116.742 189.131 116.438 189.104 116.14 189.104C115.702 189.104 115.313 189.168 114.972 189.296C114.63 189.424 114.321 189.611 114.044 189.856C113.777 190.091 113.537 190.379 113.324 190.72C113.121 191.061 112.929 191.451 112.748 191.888V202H108.796V185.584H111.116C111.521 185.584 111.804 185.659 111.964 185.808C112.124 185.947 112.23 186.203 112.284 186.576L112.524 188.432ZM132.025 189.056C131.907 189.205 131.79 189.323 131.673 189.408C131.566 189.493 131.406 189.536 131.193 189.536C130.99 189.536 130.793 189.477 130.601 189.36C130.409 189.232 130.179 189.093 129.913 188.944C129.646 188.784 129.326 188.645 128.953 188.528C128.59 188.4 128.137 188.336 127.593 188.336C126.899 188.336 126.291 188.464 125.769 188.72C125.246 188.965 124.809 189.323 124.457 189.792C124.115 190.261 123.859 190.832 123.689 191.504C123.518 192.165 123.433 192.917 123.433 193.76C123.433 194.635 123.523 195.413 123.705 196.096C123.897 196.779 124.169 197.355 124.521 197.824C124.873 198.283 125.299 198.635 125.801 198.88C126.302 199.115 126.867 199.232 127.497 199.232C128.126 199.232 128.633 199.157 129.017 199.008C129.411 198.848 129.742 198.677 130.009 198.496C130.275 198.304 130.505 198.133 130.697 197.984C130.899 197.824 131.123 197.744 131.369 197.744C131.689 197.744 131.929 197.867 132.089 198.112L133.225 199.552C132.787 200.064 132.313 200.496 131.801 200.848C131.289 201.189 130.755 201.467 130.201 201.68C129.657 201.883 129.091 202.027 128.505 202.112C127.929 202.197 127.353 202.24 126.777 202.24C125.763 202.24 124.809 202.053 123.913 201.68C123.017 201.296 122.233 200.741 121.561 200.016C120.889 199.291 120.355 198.405 119.961 197.36C119.577 196.304 119.385 195.104 119.385 193.76C119.385 192.555 119.555 191.44 119.897 190.416C120.249 189.381 120.761 188.491 121.433 187.744C122.105 186.987 122.937 186.395 123.929 185.968C124.921 185.541 126.062 185.328 127.352 185.328C128.579 185.328 129.651 185.525 130.569 185.92C131.497 186.315 132.329 186.88 133.065 187.616L132.025 189.056ZM145.997 191.904C145.997 191.392 145.922 190.912 145.773 190.464C145.634 190.005 145.421 189.605 145.133 189.264C144.845 188.923 144.477 188.656 144.029 188.464C143.591 188.261 143.079 188.16 142.493 188.16C141.351 188.16 140.45 188.485 139.789 189.136C139.138 189.787 138.722 190.709 138.541 191.904H145.997ZM138.461 194.288C138.525 195.131 138.674 195.861 138.909 196.48C139.143 197.088 139.453 197.595 139.837 198C140.221 198.395 140.674 198.693 141.197 198.896C141.73 199.088 142.317 199.184 142.957 199.184C143.597 199.184 144.146 199.109 144.605 198.96C145.074 198.811 145.479 198.645 145.821 198.464C146.173 198.283 146.477 198.117 146.733 197.968C146.999 197.819 147.255 197.744 147.501 197.744C147.831 197.744 148.077 197.867 148.237 198.112L149.373 199.552C148.935 200.064 148.445 200.496 147.901 200.848C147.357 201.189 146.786 201.467 146.189 201.68C145.602 201.883 144.999 202.027 144.381 202.112C143.773 202.197 143.181 202.24 142.605 202.24C141.463 202.24 140.402 202.053 139.421 201.68C138.439 201.296 137.586 200.736 136.861 200C136.135 199.253 135.565 198.336 135.149 197.248C134.733 196.149 134.525 194.88 134.525 193.44C134.525 192.32 134.706 191.269 135.069 190.288C135.431 189.296 135.949 188.437 136.621 187.712C137.303 186.976 138.13 186.395 139.101 185.968C140.082 185.541 141.186 185.328 142.413 185.328C143.447 185.328 144.402 185.493 145.277 185.824C146.151 186.155 146.903 186.64 147.533 187.28C148.162 187.909 148.653 188.688 149.005 189.616C149.367 190.533 149.549 191.584 149.549 192.768C149.549 193.365 149.485 193.771 149.357 193.984C149.229 194.187 148.983 194.288 148.621 194.288H138.461ZM162.819 189.776C162.371 189.232 161.88 188.848 161.347 188.624C160.824 188.4 160.259 188.288 159.651 188.288C159.053 188.288 158.515 188.4 158.035 188.624C157.555 188.848 157.144 189.189 156.803 189.648C156.461 190.096 156.2 190.672 156.019 191.376C155.837 192.069 155.747 192.891 155.747 193.84C155.747 194.8 155.821 195.616 155.971 196.288C156.131 196.949 156.355 197.493 156.643 197.92C156.931 198.336 157.283 198.64 157.699 198.832C158.115 199.013 158.579 199.104 159.091 199.104C159.912 199.104 160.611 198.933 161.187 198.592C161.763 198.251 162.307 197.765 162.819 197.136V189.776ZM166.771 178.224V202H164.355C163.832 202 163.501 201.76 163.363 201.28L163.027 199.696C162.365 200.453 161.603 201.067 160.739 201.536C159.885 202.005 158.888 202.24 157.747 202.24C156.851 202.24 156.029 202.053 155.283 201.68C154.536 201.307 153.891 200.768 153.347 200.064C152.813 199.349 152.397 198.469 152.099 197.424C151.811 196.379 151.667 195.184 151.667 193.84C151.667 192.624 151.832 191.493 152.163 190.448C152.493 189.403 152.968 188.496 153.587 187.728C154.205 186.96 154.947 186.363 155.811 185.936C156.675 185.499 157.645 185.28 158.723 185.28C159.64 185.28 160.424 185.424 161.075 185.712C161.725 186 162.307 186.389 162.819 186.88V178.224H166.771Z" fill="#F7F7F7"/>
<path d="M261.968 188.784C261.861 188.955 261.749 189.077 261.632 189.152C261.515 189.216 261.365 189.248 261.184 189.248C260.992 189.248 260.784 189.195 260.56 189.088C260.347 188.981 260.096 188.864 259.808 188.736C259.52 188.597 259.189 188.475 258.816 188.368C258.453 188.261 258.021 188.208 257.52 188.208C256.741 188.208 256.128 188.373 255.68 188.704C255.243 189.035 255.024 189.467 255.024 190C255.024 190.352 255.136 190.651 255.36 190.896C255.595 191.131 255.899 191.339 256.272 191.52C256.656 191.701 257.088 191.867 257.568 192.016C258.048 192.155 258.533 192.309 259.024 192.48C259.525 192.651 260.016 192.848 260.496 193.072C260.976 193.285 261.403 193.563 261.776 193.904C262.16 194.235 262.464 194.635 262.688 195.104C262.923 195.573 263.04 196.139 263.04 196.8C263.04 197.589 262.896 198.32 262.608 198.992C262.331 199.653 261.915 200.229 261.36 200.72C260.805 201.2 260.117 201.579 259.296 201.856C258.485 202.123 257.547 202.256 256.48 202.256C255.915 202.256 255.36 202.203 254.816 202.096C254.283 202 253.765 201.861 253.264 201.68C252.773 201.499 252.315 201.285 251.888 201.04C251.472 200.795 251.104 200.528 250.784 200.24L251.696 198.736C251.813 198.555 251.952 198.416 252.112 198.32C252.272 198.224 252.475 198.176 252.72 198.176C252.965 198.176 253.195 198.245 253.408 198.384C253.632 198.523 253.888 198.672 254.176 198.832C254.464 198.992 254.8 199.141 255.184 199.28C255.579 199.419 256.075 199.488 256.672 199.488C257.141 199.488 257.541 199.435 257.872 199.328C258.213 199.211 258.491 199.061 258.704 198.88C258.928 198.699 259.088 198.491 259.184 198.256C259.291 198.011 259.344 197.76 259.344 197.504C259.344 197.12 259.227 196.805 258.992 196.56C258.768 196.315 258.464 196.101 258.08 195.92C257.707 195.739 257.275 195.579 256.784 195.44C256.304 195.291 255.808 195.131 255.296 194.96C254.795 194.789 254.299 194.592 253.808 194.368C253.328 194.133 252.896 193.84 252.512 193.488C252.139 193.136 251.835 192.704 251.6 192.192C251.376 191.68 251.264 191.061 251.264 190.336C251.264 189.664 251.397 189.024 251.664 188.416C251.931 187.808 252.32 187.28 252.832 186.832C253.355 186.373 254 186.011 254.768 185.744C255.547 185.467 256.443 185.328 257.456 185.328C258.587 185.328 259.616 185.515 260.544 185.888C261.472 186.261 262.245 186.752 262.864 187.36L261.968 188.784ZM276.591 191.904C276.591 191.392 276.516 190.912 276.367 190.464C276.228 190.005 276.015 189.605 275.727 189.264C275.439 188.923 275.071 188.656 274.623 188.464C274.185 188.261 273.673 188.16 273.087 188.16C271.945 188.16 271.044 188.485 270.383 189.136C269.732 189.787 269.316 190.709 269.135 191.904H276.591ZM269.055 194.288C269.119 195.131 269.268 195.861 269.503 196.48C269.737 197.088 270.047 197.595 270.431 198C270.815 198.395 271.268 198.693 271.791 198.896C272.324 199.088 272.911 199.184 273.551 199.184C274.191 199.184 274.74 199.109 275.199 198.96C275.668 198.811 276.073 198.645 276.415 198.464C276.767 198.283 277.071 198.117 277.327 197.968C277.593 197.819 277.849 197.744 278.095 197.744C278.425 197.744 278.671 197.867 278.831 198.112L279.967 199.552C279.529 200.064 279.039 200.496 278.495 200.848C277.951 201.189 277.38 201.467 276.783 201.68C276.196 201.883 275.593 202.027 274.975 202.112C274.367 202.197 273.775 202.24 273.199 202.24C272.057 202.24 270.996 202.053 270.015 201.68C269.033 201.296 268.18 200.736 267.455 200C266.729 199.253 266.159 198.336 265.743 197.248C265.327 196.149 265.118 194.88 265.118 193.44C265.118 192.32 265.3 191.269 265.663 190.288C266.025 189.296 266.543 188.437 267.215 187.712C267.897 186.976 268.724 186.395 269.695 185.968C270.676 185.541 271.78 185.328 273.007 185.328C274.041 185.328 274.996 185.493 275.871 185.824C276.745 186.155 277.497 186.64 278.127 187.28C278.756 187.909 279.247 188.688 279.599 189.616C279.961 190.533 280.142 191.584 280.142 192.768C280.142 193.365 280.079 193.771 279.951 193.984C279.823 194.187 279.577 194.288 279.215 194.288H269.055ZM286.836 188.432C287.348 187.451 287.956 186.683 288.66 186.128C289.364 185.563 290.196 185.28 291.156 185.28C291.914 185.28 292.522 185.445 292.98 185.776L292.724 188.736C292.671 188.928 292.591 189.067 292.484 189.152C292.388 189.227 292.255 189.264 292.084 189.264C291.924 189.264 291.684 189.237 291.364 189.184C291.055 189.131 290.751 189.104 290.452 189.104C290.015 189.104 289.626 189.168 289.284 189.296C288.943 189.424 288.634 189.611 288.356 189.856C288.09 190.091 287.85 190.379 287.636 190.72C287.434 191.061 287.242 191.451 287.06 191.888V202H283.108V185.584H285.428C285.834 185.584 286.116 185.659 286.276 185.808C286.436 185.947 286.543 186.203 286.596 186.576L286.836 188.432ZM309.846 185.584L303.334 202H299.75L293.238 185.584H296.502C296.8 185.584 297.046 185.653 297.238 185.792C297.44 185.931 297.574 186.107 297.638 186.32L300.806 195.088C300.976 195.6 301.126 196.101 301.254 196.592C301.382 197.083 301.494 197.573 301.59 198.064C301.696 197.573 301.814 197.083 301.942 196.592C302.07 196.101 302.224 195.6 302.406 195.088L305.638 186.32C305.712 186.107 305.846 185.931 306.038 185.792C306.23 185.653 306.459 185.584 306.726 185.584H309.846ZM316.048 185.584V202H312.08V185.584H316.048ZM316.592 180.8C316.592 181.141 316.523 181.461 316.384 181.76C316.245 182.059 316.059 182.32 315.824 182.544C315.6 182.768 315.333 182.949 315.024 183.088C314.715 183.216 314.384 183.28 314.032 183.28C313.691 183.28 313.365 183.216 313.056 183.088C312.757 182.949 312.496 182.768 312.272 182.544C312.048 182.32 311.867 182.059 311.728 181.76C311.6 181.461 311.536 181.141 311.536 180.8C311.536 180.448 311.6 180.117 311.728 179.808C311.867 179.499 312.048 179.232 312.272 179.008C312.496 178.784 312.757 178.608 313.056 178.48C313.365 178.341 313.691 178.272 314.032 178.272C314.384 178.272 314.715 178.341 315.024 178.48C315.333 178.608 315.6 178.784 315.824 179.008C316.059 179.232 316.245 179.499 316.384 179.808C316.523 180.117 316.592 180.448 316.592 180.8ZM331.837 189.056C331.72 189.205 331.602 189.323 331.485 189.408C331.378 189.493 331.218 189.536 331.005 189.536C330.802 189.536 330.605 189.477 330.413 189.36C330.221 189.232 329.992 189.093 329.725 188.944C329.458 188.784 329.138 188.645 328.765 188.528C328.402 188.4 327.949 188.336 327.405 188.336C326.712 188.336 326.104 188.464 325.581 188.72C325.058 188.965 324.621 189.323 324.269 189.792C323.928 190.261 323.672 190.832 323.501 191.504C323.33 192.165 323.245 192.917 323.245 193.76C323.245 194.635 323.336 195.413 323.517 196.096C323.709 196.779 323.981 197.355 324.333 197.824C324.685 198.283 325.112 198.635 325.613 198.88C326.114 199.115 326.68 199.232 327.309 199.232C327.938 199.232 328.445 199.157 328.829 199.008C329.224 198.848 329.554 198.677 329.821 198.496C330.088 198.304 330.317 198.133 330.509 197.984C330.712 197.824 330.936 197.744 331.181 197.744C331.501 197.744 331.741 197.867 331.901 198.112L333.037 199.552C332.6 200.064 332.125 200.496 331.613 200.848C331.101 201.189 330.568 201.467 330.013 201.68C329.469 201.883 328.904 202.027 328.317 202.112C327.741 202.197 327.165 202.24 326.589 202.24C325.576 202.24 324.621 202.053 323.725 201.68C322.829 201.296 322.045 200.741 321.373 200.016C320.701 199.291 320.168 198.405 319.773 197.36C319.389 196.304 319.197 195.104 319.197 193.76C319.197 192.555 319.368 191.44 319.709 190.416C320.061 189.381 320.573 188.491 321.245 187.744C321.917 186.987 322.749 186.395 323.741 185.968C324.733 185.541 325.874 185.328 327.165 185.328C328.392 185.328 329.464 185.525 330.381 185.92C331.309 186.315 332.141 186.88 332.877 187.616L331.837 189.056ZM345.809 191.904C345.809 191.392 345.735 190.912 345.585 190.464C345.447 190.005 345.233 189.605 344.945 189.264C344.657 188.923 344.289 188.656 343.841 188.464C343.404 188.261 342.892 188.16 342.305 188.16C341.164 188.16 340.263 188.485 339.601 189.136C338.951 189.787 338.535 190.709 338.353 191.904H345.809ZM338.273 194.288C338.337 195.131 338.487 195.861 338.721 196.48C338.956 197.088 339.265 197.595 339.649 198C340.033 198.395 340.487 198.693 341.009 198.896C341.543 199.088 342.129 199.184 342.769 199.184C343.409 199.184 343.959 199.109 344.417 198.96C344.887 198.811 345.292 198.645 345.633 198.464C345.985 198.283 346.289 198.117 346.545 197.968C346.812 197.819 347.068 197.744 347.313 197.744C347.644 197.744 347.889 197.867 348.049 198.112L349.185 199.552C348.748 200.064 348.257 200.496 347.713 200.848C347.169 201.189 346.599 201.467 346.001 201.68C345.415 201.883 344.812 202.027 344.193 202.112C343.585 202.197 342.993 202.24 342.417 202.24C341.276 202.24 340.215 202.053 339.233 201.68C338.252 201.296 337.399 200.736 336.673 200C335.948 199.253 335.377 198.336 334.961 197.248C334.545 196.149 334.337 194.88 334.337 193.44C334.337 192.32 334.519 191.269 334.881 190.288C335.244 189.296 335.761 188.437 336.433 187.712C337.116 186.976 337.943 186.395 338.913 185.968C339.895 185.541 340.999 185.328 342.225 185.328C343.26 185.328 344.215 185.493 345.089 185.824C345.964 186.155 346.716 186.64 347.345 187.28C347.975 187.909 348.465 188.688 348.817 189.616C349.18 190.533 349.361 191.584 349.361 192.768C349.361 193.365 349.297 193.771 349.169 193.984C349.041 194.187 348.796 194.288 348.433 194.288H338.273Z" fill="#F7F7F7"/>
<path d="M198.168 178.688L188.824 202H183.928L174.584 178.688H178.936C179.405 178.688 179.784 178.8 180.072 179.024C180.36 179.237 180.579 179.515 180.728 179.856L185.24 192.336C185.453 192.88 185.661 193.477 185.864 194.128C186.067 194.768 186.259 195.44 186.44 196.144C186.589 195.44 186.755 194.768 186.936 194.128C187.128 193.477 187.331 192.88 187.544 192.336L192.024 179.856C192.141 179.557 192.349 179.291 192.648 179.056C192.957 178.811 193.336 178.688 193.784 178.688H198.168ZM208.23 190.128C209.638 190.128 210.651 189.792 211.27 189.12C211.889 188.448 212.198 187.509 212.198 186.304C212.198 185.771 212.118 185.285 211.958 184.848C211.798 184.411 211.553 184.037 211.222 183.728C210.902 183.408 210.491 183.163 209.99 182.992C209.499 182.821 208.913 182.736 208.23 182.736H205.414V190.128H208.23ZM208.23 178.688C209.873 178.688 211.281 178.885 212.454 179.28C213.638 179.664 214.609 180.197 215.366 180.88C216.134 181.563 216.699 182.368 217.062 183.296C217.425 184.224 217.606 185.227 217.606 186.304C217.606 187.467 217.419 188.533 217.046 189.504C216.673 190.475 216.102 191.307 215.334 192C214.566 192.693 213.59 193.237 212.406 193.632C211.233 194.016 209.841 194.208 208.23 194.208H205.414V202H200.006V178.688H208.23ZM240.702 178.688V202H237.886C237.47 202 237.118 201.936 236.83 201.808C236.552 201.669 236.275 201.435 235.998 201.104L225.006 187.2C225.048 187.616 225.075 188.021 225.086 188.416C225.107 188.8 225.118 189.163 225.118 189.504V202H220.35V178.688H223.198C223.432 178.688 223.63 178.699 223.79 178.72C223.95 178.741 224.094 178.784 224.222 178.848C224.35 178.901 224.472 178.981 224.59 179.088C224.707 179.195 224.84 179.339 224.99 179.52L236.078 193.52C236.024 193.072 235.987 192.64 235.966 192.224C235.944 191.797 235.934 191.397 235.934 191.024V178.688H240.702Z" fill="#2DA7DD"/>
</svg>
